<svg width="602" height="685" viewBox="0 0 602 685" fill="none" xmlns="http://www.w3.org/2000/svg">
<path d="M200.288 6.0127C222.911 19.3041 253.099 39.6648 284.168 69.5667C289.799 64.891 295.485 60.4522 301.187 56.251C278.446 38.871 245.862 19.8743 200.288 6.0127Z" fill="#800080"/>
<path d="M313.222 99.5832C326.358 114.372 340.557 132.733 353.527 156.094C366.021 178.595 415.455 267.643 379.989 319.763C376.877 324.338 362.667 343.975 337.667 349.133C335.449 349.589 330.608 350.586 324.496 350.738C314.549 350.986 301.229 348.996 290.346 338.811C279.419 328.584 272.587 310.373 275.133 295.437C278.765 274.117 291.63 264.768 306.362 263.265C306.643 263.236 307.237 263.184 308.064 263.163C311.91 263.067 320.73 263.649 325.924 270.528C329.87 275.755 329.638 281.871 329.439 284.122C328.256 283.102 323.057 278.858 315.555 279.045C315.317 279.051 315.079 279.057 314.836 279.074C307.844 279.508 301.74 283.681 298.887 288.845C292.983 299.529 299.137 316.408 311.063 323.06C315.767 325.681 321.64 326.011 325.988 325.903C333.588 325.714 338.41 323.724 340.625 322.324C363.901 307.61 370.614 282.333 364.638 259.935C357.039 231.446 327.632 218.751 306.071 218.352C305.243 218.334 304.404 218.339 303.577 218.36C272.882 219.124 243.678 244.304 235.614 281.047C228.781 312.191 239.312 343.46 259.653 363.541C284.555 388.125 315.928 388.961 325.47 388.761C325.584 388.759 325.698 388.756 325.811 388.753C368.373 387.693 394.204 356.59 401.251 348.139C418.188 327.828 423.814 306.64 425.826 296.382C426.998 290.405 431.345 265.693 416 219.775C401.584 176.637 380.808 147.55 361.031 120.56C354.7 111.923 344.812 98.2334 333.371 85.6593C332.325 84.5109 331.202 83.3049 330.024 82.0624C324.251 87.7807 318.643 93.6248 313.217 99.578L313.222 99.5832Z" fill="black"/>
<path d="M330.134 71.4248C358.524 44.1549 387.656 22.6034 413.889 5.91373C389.684 14.2939 352.391 29.5867 313.701 56.572C319.459 61.3373 324.941 66.2936 330.14 71.4247L330.134 71.4248Z" fill="#800080"/>
<path d="M283.81 79.7661C264.286 96.597 245.163 116.725 227.967 140.777C207.021 170.059 173.333 217.686 171.665 284.329C171.111 306.408 171.256 358.139 209.389 399.138C214.266 404.38 252.974 444.607 309.555 443.198C315.326 443.054 321.298 442.478 327.429 441.383C374.996 432.903 414.112 396.722 428.487 348.494C420.347 360.89 401.883 385.066 369.114 400.111C359.182 404.672 340.54 413.233 317.688 413.802C308.844 414.022 299.365 413.046 289.519 410.174C264.458 402.864 249.248 386.926 242.446 379.61C219.818 355.278 213.959 327.985 211.847 317.5C209.506 305.89 199.916 249.841 249.104 174.331C265.295 146.228 283.711 121.42 303.073 99.5816C296.303 92.222 290.015 85.9437 284.631 80.5682C284.359 80.299 284.082 80.0353 283.816 79.7659L283.81 79.7661Z" fill="black"/>
<path d="M308.13 93.9579C313.614 87.9653 319.159 82.2148 324.748 76.6851C319.881 71.8813 314.111 66.613 307.344 61.1042C301.433 65.4134 295.502 69.9937 289.594 74.8765C289.711 74.9926 289.833 75.1087 289.949 75.2302C295.455 80.7217 301.611 86.9059 308.124 93.958L308.13 93.9579Z" fill="#800080"/>
<path d="M0.373535 611.381V610.055L9.39339 601.038V536.845L0.373535 527.828V526.502H37.5072V527.828L28.4902 536.845V563.767H65.6239V536.845L56.604 527.828V526.502H93.7377V527.828L84.7207 536.845V601.035L93.7377 610.052V611.378H56.604V610.052L65.6239 601.035V571.061H28.4902V601.035L37.5072 610.052V611.378H0.373535V611.381Z" fill="#800080"/>
<path d="M127.16 612.707C111.643 612.707 99.0437 600.638 99.0437 583.133C99.0437 564.433 112.838 549.579 128.618 549.579C144.397 549.579 152.489 561.782 152.489 576.502H113.895C114.558 591.221 123.709 598.118 134.583 598.118C141.877 598.118 148.111 595.067 151.426 588.836H152.886C150.763 604.087 140.949 612.707 127.157 612.707H127.16ZM114.163 570.533H135.649C135.383 562.442 132.597 556.21 126.1 556.21C120.132 556.21 115.358 562.045 114.163 570.533Z" fill="#800080"/>
<path d="M178.481 611.38V610.055L187.501 601.038V536.845L178.481 527.828V526.502H215.615V527.828L206.598 536.845V567.215C223.044 562.573 238.56 549.976 243.203 539.099L231.666 527.825V526.499H257.792V527.825C253.815 541.484 243.072 554.481 230.472 563.501L263.894 610.052V611.378H227.289V610.052L234.981 601.035L214.821 572.124C212.035 573.318 209.25 574.113 206.598 574.775V601.035L215.615 610.052V611.378H178.481V611.38Z" fill="#800080"/>
<path d="M278.518 539.376V529.425H313.545V539.376H278.518ZM297.889 550.123C311.024 550.123 318.852 556.093 318.852 565.646V599.612C319.781 600.673 320.842 601.071 322.567 601.071C324.955 601.071 326.813 599.877 327.874 597.621H329.334C329.068 605.449 324.159 613.277 314.341 613.277C307.309 613.277 302.665 608.368 301.206 603.194C297.623 609.164 291.52 613.145 283.692 613.145C274.67 613.145 268.169 607.44 268.169 599.213C268.169 588.599 277.722 582.231 300.675 576.526V569.096C300.675 561.002 297.225 557.553 290.194 557.553C286.08 557.553 282.498 558.879 280.11 560.737C285.815 561.002 287.805 565.381 287.805 568.698C287.805 573.209 284.754 577.587 278.783 577.587C273.874 577.587 269.496 574.137 269.496 568.034C269.496 557.287 283.56 550.123 297.889 550.123ZM300.675 581.567C290.061 584.884 285.55 588.334 285.55 594.702C285.55 599.877 288.867 602.928 293.643 602.928C296.429 602.928 298.95 602.132 300.675 600.408V581.567Z" fill="#800080"/>
<path d="M362.293 611.38H331.128V610.055L337.362 602.761V535.916L330.6 529.682V528.356L355.931 518.542V579.415C365.613 576.101 375.956 569.07 380.202 562.307L371.582 552.361V550.901H395.056V552.361C391.341 560.981 384.71 568.807 376.487 574.907L398.767 610.052V611.378H370.253V610.052L374.365 603.023L362.296 583.13C360.173 584.058 358.053 584.852 355.931 585.518V602.758L362.296 610.052V611.378L362.293 611.38Z" fill="#800080"/>
<path d="M453.138 565.096V599.047C454.066 600.107 455.261 600.507 456.984 600.507C459.372 600.507 461.361 599.312 462.421 597.058H463.615C463.349 604.884 458.043 612.707 448.629 612.707C441.601 612.707 436.958 607.798 435.498 602.627C431.918 608.595 425.815 612.572 417.993 612.572C408.976 612.572 402.476 606.87 402.476 598.647C402.476 588.036 412.024 581.67 434.97 575.967V568.542C434.97 560.45 431.521 557.005 424.493 557.005C420.381 557.005 416.801 558.33 414.413 560.187C420.116 560.453 422.104 564.83 422.104 568.144C422.104 572.653 419.053 577.03 413.087 577.03C408.181 577.03 403.804 573.581 403.804 567.482C403.804 556.739 417.861 549.576 432.187 549.576C445.315 549.576 453.141 555.545 453.141 565.093L453.138 565.096ZM419.85 594.138C419.85 599.31 423.164 602.361 427.941 602.361C430.727 602.361 433.247 601.564 434.97 599.841V581.01C423.564 584.458 419.85 587.773 419.85 594.138Z" fill="#800080"/>
<path d="M497.299 611.38H466.134V610.055L472.368 602.76V566.155L466.134 559.655V558.33L490.933 548.781V561.647C493.85 556.475 501.144 549.578 510.43 549.578C523.161 549.578 528.467 558.333 528.467 568.278V602.76L534.832 610.055V611.38H503.667V610.055L509.901 602.76V572.655C509.901 565.627 507.116 561.381 499.956 561.381C496.376 561.381 493.193 562.841 490.939 564.83V602.76L497.304 610.055V611.38H497.299Z" fill="#800080"/>
<path d="M570.541 549.579C585.13 549.579 601.575 562.576 601.575 581.144C601.575 599.713 585.13 612.709 570.541 612.709C555.953 612.709 539.508 599.713 539.508 581.144C539.508 562.576 555.822 549.579 570.541 549.579ZM570.541 555.282C563.247 557.802 558.604 567.882 558.604 581.144C558.604 594.407 563.247 604.487 570.541 607.007C577.704 604.487 582.478 594.407 582.478 581.144C582.478 567.882 577.704 557.802 570.541 555.282Z" fill="#800080"/>
<path d="M40.6468 683.084V683.821H25.2297V683.084L30.6879 678.509L45.1475 636.606H56.3618L70.8213 678.509L76.2796 683.084V683.821H55.7713V683.084L61.2295 678.509L56.8779 665.597H39.5403L35.1886 678.509L40.6468 683.084ZM55.5479 661.839L48.1718 640.075L40.7958 661.839H55.5505H55.5479Z" fill="black"/>
<path d="M92.6667 649.593C100.487 649.593 109.265 656.823 109.265 667.077C109.265 677.331 100.487 684.561 92.6667 684.561C84.8465 684.561 76.0686 677.331 76.0686 667.077C76.0686 656.823 84.8465 649.593 92.6667 649.593ZM92.6667 652.617C88.1661 654.019 85.1417 659.698 85.1417 667.077C85.1417 674.455 88.1661 680.134 92.6667 681.536C97.1674 680.134 100.192 674.455 100.192 667.077C100.192 659.698 97.1674 654.019 92.6667 652.617Z" fill="black"/>
<path d="M124.314 643.469H124.905V650.329H135.084V655.787H124.905V675.633C125.716 676.96 127.192 677.92 129.626 677.92C132.209 677.92 134.422 676.372 135.233 674.085H136.045C135.675 679.987 131.988 684.56 125.791 684.56C120.037 684.56 116.348 680.65 116.348 674.526L116.569 655.787H111.922V654.46L124.314 643.469Z" fill="black"/>
<path d="M154.119 684.561C145.708 684.561 138.774 677.921 138.774 668.037C138.774 658.152 146.15 649.593 154.782 649.593C163.413 649.593 167.618 656.453 167.618 664.422H145.783C146.004 672.979 151.39 677.259 157.734 677.259C161.939 677.259 165.405 675.416 167.251 671.652H167.988C166.956 679.988 161.495 684.563 154.119 684.563V684.561ZM146.004 661.174H159.208C159.208 656.527 157.141 653.208 153.38 653.208C149.619 653.208 146.887 656.527 146.004 661.174Z" fill="black"/>
<path d="M198.677 658.224V677.48C199.267 678.07 200.004 678.44 201.111 678.44C202.513 678.44 203.619 677.703 204.284 676.448H204.875C204.579 680.432 201.996 684.563 197.054 684.563C193.365 684.563 191.006 681.909 190.194 679.177C188.127 682.35 184.736 684.563 180.605 684.563C175.737 684.563 172.123 681.39 172.123 676.964C172.123 671.061 177.286 667.521 189.976 664.127V659.847C189.976 655.495 188.058 653.577 184.148 653.577C181.565 653.577 179.352 654.538 178.025 655.79C181.198 655.79 182.305 658.153 182.305 659.921C182.305 662.209 180.682 664.568 177.658 664.568C175.003 664.568 172.79 662.725 172.79 659.552C172.79 653.798 180.39 649.593 187.987 649.593C194.775 649.593 198.682 652.838 198.682 658.224H198.677ZM180.456 674.602C180.456 677.552 182.523 679.323 185.324 679.323C187.021 679.323 188.864 678.882 189.971 677.552V666.928C182.89 669.066 180.454 671.059 180.454 674.599L180.456 674.602Z" fill="black"/>
<path d="M210.185 658.519L206.424 655.2V654.463L219.04 649.3V656.825C220.884 653.064 224.278 649.595 228.337 649.595C232.026 649.595 234.239 652.103 234.239 655.423C234.239 658.743 231.877 660.735 229.076 660.735C225.978 660.735 224.43 658.522 224.43 656.309C224.43 655.644 224.576 655.128 224.799 654.612L219.046 658.668V679.176L224.504 683.087V683.823H206.43V683.087L210.191 679.325V658.522L210.185 658.519Z" fill="black"/>
<path d="M252.656 649.593C260.476 649.593 269.254 656.823 269.254 667.077C269.254 677.331 260.476 684.561 252.656 684.561C244.835 684.561 236.058 677.331 236.058 667.077C236.058 656.823 244.835 649.593 252.656 649.593ZM252.656 652.617C248.155 654.019 245.131 659.698 245.131 667.077C245.131 674.455 248.155 680.134 252.656 681.536C257.156 680.134 260.181 674.455 260.181 667.077C260.181 659.698 257.156 654.019 252.656 652.617Z" fill="black"/>
<path d="M300.463 658.224V677.48C301.053 678.07 301.79 678.44 302.897 678.44C304.299 678.44 305.405 677.703 306.07 676.448H306.661C306.365 680.432 303.783 684.563 298.84 684.563C295.151 684.563 292.792 681.909 291.98 679.177C289.914 682.35 286.522 684.563 282.391 684.563C277.524 684.563 273.909 681.39 273.909 676.964C273.909 671.061 279.072 667.521 291.762 664.127V659.847C291.762 655.495 289.844 653.577 285.934 653.577C283.352 653.577 281.138 654.538 279.811 655.79C282.984 655.79 284.091 658.153 284.091 659.921C284.091 662.209 282.468 664.568 279.444 664.568C276.789 664.568 274.576 662.725 274.576 659.552C274.576 653.798 282.176 649.593 289.773 649.593C296.561 649.593 300.468 652.838 300.468 658.224H300.463ZM282.24 674.602C282.24 677.552 284.306 679.323 287.107 679.323C288.804 679.323 290.648 678.882 291.754 677.552V666.928C284.674 669.066 282.237 671.059 282.237 674.599L282.24 674.602Z" fill="black"/>
<path d="M318.167 637.346V636.609H338.675V637.346L333.217 641.921L345.979 679.839L358.667 641.921L353.209 637.346V636.609H368.626V637.346L363.168 641.921L348.858 683.824H338.087L323.628 641.921L318.17 637.346H318.167Z" fill="black"/>
<path d="M393.211 658.224V677.48C393.801 678.07 394.538 678.44 395.644 678.44C397.046 678.44 398.153 677.703 398.818 676.448H399.408C399.113 680.432 396.53 684.563 391.588 684.563C387.899 684.563 385.539 681.909 384.728 679.177C382.661 682.35 379.27 684.563 375.139 684.563C370.271 684.563 366.656 681.39 366.656 676.964C366.656 671.061 371.819 667.521 384.51 664.127V659.847C384.51 655.495 382.592 653.577 378.682 653.577C376.099 653.577 373.886 654.538 372.559 655.79C375.732 655.79 376.839 658.153 376.839 659.921C376.839 662.209 375.216 664.568 372.192 664.568C369.537 664.568 367.324 662.725 367.324 659.552C367.324 653.798 374.923 649.593 382.52 649.593C389.308 649.593 393.216 652.838 393.216 658.224H393.211ZM374.99 674.602C374.99 677.552 377.057 679.323 379.858 679.323C381.555 679.323 383.398 678.882 384.504 677.552V666.928C377.424 669.066 374.987 671.059 374.987 674.599L374.99 674.602Z" fill="black"/>
<path d="M404.721 658.519L400.96 655.2V654.463L413.576 649.3V656.825C415.419 653.064 418.814 649.595 422.873 649.595C426.562 649.595 428.775 652.103 428.775 655.423C428.775 658.743 426.413 660.735 423.612 660.735C420.513 660.735 418.965 658.522 418.965 656.309C418.965 655.644 419.112 655.128 419.335 654.612L413.581 658.668V679.176L419.04 683.087V683.823H400.965V683.087L404.726 679.325V658.522L404.721 658.519Z" fill="black"/>
<path d="M447.728 683.823H431.276V683.087L435.038 679.325V658.522L431.276 655.202V654.465L443.893 649.302V679.328L447.728 683.089V683.826V683.823ZM439.246 644.65C436.221 644.65 433.934 642.363 433.934 639.338C433.934 636.314 436.221 634.026 439.246 634.026C442.27 634.026 444.557 636.388 444.557 639.338C444.557 642.288 442.195 644.65 439.246 644.65Z" fill="black"/>
<path d="M468.091 649.593C475.912 649.593 484.689 656.823 484.689 667.077C484.689 677.331 475.912 684.561 468.091 684.561C460.271 684.561 451.493 677.331 451.493 667.077C451.493 656.823 460.271 649.593 468.091 649.593ZM468.091 652.617C463.591 654.019 460.566 659.698 460.566 667.077C460.566 674.455 463.591 680.134 468.091 681.536C472.592 680.134 475.616 674.455 475.616 667.077C475.616 659.698 472.592 654.019 468.091 652.617Z" fill="black"/>
<path d="M505.201 683.824H488.749V683.087L492.51 679.326V658.522L488.749 655.203V654.466L501.365 649.303V656.016C503.136 653.213 507.193 649.598 512.061 649.598C516.928 649.598 519.955 652.327 521.062 656.091C522.905 653.213 527.111 649.598 532.202 649.598C538.915 649.598 541.719 654.394 541.719 660.001V679.328L545.555 683.089V683.826H529.103V683.089L532.864 679.328V662.214C532.864 658.009 531.537 655.575 527.257 655.575C525.265 655.575 522.977 656.386 521.354 657.567C521.501 658.378 521.575 659.19 521.575 660.001V679.328L525.411 683.089V683.826H508.959V683.089L512.72 679.328V662.214C512.72 658.009 511.318 655.575 507.039 655.575C504.826 655.575 502.833 656.461 501.357 657.714V679.328L505.193 683.089V683.826L505.201 683.824Z" fill="black"/>
<path d="M564.217 684.561C555.806 684.561 548.871 677.921 548.871 668.037C548.871 658.152 556.247 649.593 564.879 649.593C573.51 649.593 577.716 656.453 577.716 664.422H555.88C556.101 672.979 561.487 677.259 567.831 677.259C572.037 677.259 575.503 675.416 577.349 671.652H578.086C577.053 679.988 571.593 684.563 564.217 684.563V684.561ZM556.104 661.174H569.308C569.308 656.527 567.241 653.208 563.48 653.208C559.719 653.208 556.987 656.527 556.104 661.174Z" fill="black"/>
</svg>
