<svg width="1019" height="311" viewBox="0 0 1019 311" fill="none" xmlns="http://www.w3.org/2000/svg">
<path d="M227.288 161.376V159.63L239.166 147.756V63.2215L227.288 51.3473V49.6016H276.188V51.3473L264.314 63.2215V98.6749H313.214V63.2215L301.336 51.3473V49.6016H350.237V51.3473L338.362 63.2215V147.752L350.237 159.626V161.372H301.336V159.626L313.214 147.752V108.28H264.314V147.752L276.188 159.626V161.372H227.288V161.376Z" fill="#800080"/>
<path d="M394.25 163.122C373.817 163.122 357.224 147.23 357.224 124.177C357.224 99.5521 375.389 79.9912 396.169 79.9912C416.949 79.9912 427.604 96.0605 427.604 115.445H376.781C377.654 134.829 389.705 143.911 404.025 143.911C413.631 143.911 421.84 139.893 426.205 131.687H428.127C425.332 151.771 412.408 163.122 394.246 163.122H394.25ZM377.135 107.585H405.428C405.079 96.9297 401.41 88.7238 392.854 88.7238C384.995 88.7238 378.708 96.4067 377.135 107.585Z" fill="#800080"/>
<path d="M461.833 161.377V159.631L473.711 147.757V63.2224L461.833 51.3482V49.6024H510.734V51.3482L498.859 63.2224V103.217C520.516 97.103 540.95 80.5145 547.064 66.1909L531.871 51.3444V49.5986H566.274V51.3444C561.037 69.3326 546.89 86.4478 530.298 98.3258L574.311 159.627V161.373H526.107V159.627L536.235 147.753L509.688 109.681C506.019 111.254 502.351 112.299 498.859 113.172V147.753L510.734 159.627V161.373H461.833V161.377Z" fill="#800080"/>
<path d="M593.569 66.5552V53.4512H639.695V66.5552H593.569ZM619.078 80.7075C636.375 80.7075 646.683 88.5699 646.683 101.15V145.878C647.907 147.276 649.304 147.8 651.576 147.8C654.721 147.8 657.167 146.227 658.564 143.257H660.486C660.137 153.566 653.672 163.874 640.743 163.874C631.483 163.874 625.368 157.41 623.446 150.595C618.728 158.458 610.691 163.699 600.383 163.699C588.502 163.699 579.94 156.187 579.94 145.354C579.94 131.376 592.52 122.99 622.747 115.477V105.692C622.747 95.0345 618.204 90.4918 608.944 90.4918C603.528 90.4918 598.81 92.239 595.665 94.6851C603.178 95.0345 605.799 100.8 605.799 105.168C605.799 111.109 601.78 116.875 593.918 116.875C587.453 116.875 581.688 112.332 581.688 104.295C581.688 90.1424 600.208 80.7075 619.078 80.7075ZM622.747 122.116C608.769 126.484 602.829 131.027 602.829 139.413C602.829 146.227 607.197 150.246 613.487 150.246C617.156 150.246 620.475 149.198 622.747 146.926V122.116Z" fill="#800080"/>
<path d="M703.89 161.376H662.85V159.631L671.059 150.025V61.9994L662.154 53.7898V52.0441L695.511 39.1201V119.282C708.262 114.918 721.882 105.659 727.473 96.753L716.122 83.656V81.7334H747.034V83.656C742.143 95.0072 733.41 105.312 722.582 113.345L751.921 159.627V161.373H714.372V159.627L719.786 150.371L703.894 124.174C701.098 125.396 698.307 126.442 695.511 127.319V150.021L703.894 159.627V161.373L703.89 161.376Z" fill="#800080"/>
<path d="M823.521 100.425V145.134C824.743 146.53 826.316 147.056 828.585 147.056C831.73 147.056 834.349 145.484 835.745 142.515H837.317C836.967 152.82 829.981 163.122 817.583 163.122C808.328 163.122 802.214 156.658 800.291 149.848C795.577 157.708 787.54 162.945 777.239 162.945C765.365 162.945 756.805 155.435 756.805 144.607C756.805 130.633 769.379 122.251 799.595 114.741V104.962C799.595 94.3071 795.054 89.7696 785.798 89.7696C780.384 89.7696 775.67 91.5154 772.525 93.961C780.034 94.3109 782.653 100.075 782.653 104.439C782.653 110.376 778.635 116.14 770.779 116.14C764.319 116.14 758.555 111.599 758.555 103.566C758.555 89.4197 777.066 79.9873 795.931 79.9873C813.219 79.9873 823.524 87.847 823.524 100.421L823.521 100.425ZM779.685 138.67C779.685 145.48 784.049 149.498 790.34 149.498C794.008 149.498 797.327 148.448 799.595 146.18V121.382C784.576 125.923 779.685 130.287 779.685 138.67Z" fill="#800080"/>
<path d="M881.675 161.376H840.634V159.63L848.844 150.025V101.821L840.634 93.2612V91.5154L873.292 78.9414V95.8836C877.134 89.0736 886.739 79.9911 898.967 79.9911C915.732 79.9911 922.719 91.5192 922.719 104.616V150.025L931.102 159.63V161.376H890.061V159.63L898.271 150.025V110.38C898.271 101.125 894.602 95.5337 885.174 95.5337C880.46 95.5337 876.268 97.4563 873.3 100.075V150.025L881.682 159.63V161.376H881.675Z" fill="#800080"/>
<path d="M978.126 79.9922C997.337 79.9922 1018.99 97.1075 1018.99 121.559C1018.99 146.011 997.337 163.127 978.126 163.127C958.915 163.127 937.258 146.011 937.258 121.559C937.258 97.1075 958.742 79.9922 978.126 79.9922ZM978.126 87.502C968.52 90.8204 962.406 104.094 962.406 121.559C962.406 139.025 968.52 152.299 978.126 155.617C987.558 152.299 993.845 139.025 993.845 121.559C993.845 104.094 987.558 90.8204 978.126 87.502Z" fill="#800080"/>
<path d="M247.262 267.284V268.254H226.96V267.284L234.148 261.259L253.189 206.079H267.957L286.998 261.259L294.186 267.284V268.254H267.179V267.284L274.367 261.259L268.636 244.256H245.805L240.075 261.259L247.262 267.284ZM266.885 239.307L257.172 210.647L247.458 239.307H266.889H266.885Z" fill="black"/>
<path d="M315.766 223.18C326.064 223.18 337.623 232.7 337.623 246.204C337.623 259.707 326.064 269.228 315.766 269.228C305.468 269.228 293.908 259.707 293.908 246.204C293.908 232.7 305.468 223.18 315.766 223.18ZM315.766 227.162C309.839 229.008 305.856 236.487 305.856 246.204C305.856 255.92 309.839 263.399 315.766 265.245C321.693 263.399 325.675 255.92 325.675 246.204C325.675 236.487 321.693 229.008 315.766 227.162Z" fill="black"/>
<path d="M357.442 215.115H358.219V224.149H371.625V231.337H358.219V257.471C359.288 259.219 361.232 260.484 364.437 260.484C367.838 260.484 370.752 258.445 371.821 255.433H372.889C372.402 263.205 367.547 269.227 359.386 269.227C351.809 269.227 346.951 264.078 346.951 256.014L347.241 231.337H341.122V229.589L357.442 215.115Z" fill="black"/>
<path d="M396.691 269.228C385.615 269.228 376.483 260.485 376.483 247.468C376.483 234.452 386.196 223.18 397.563 223.18C408.93 223.18 414.468 232.213 414.468 242.708H385.713C386.004 253.976 393.097 259.612 401.451 259.612C406.989 259.612 411.553 257.185 413.984 252.229H414.954C413.595 263.206 406.404 269.231 396.691 269.231V269.228ZM386.004 238.431H403.392C403.392 232.312 400.67 227.94 395.717 227.94C390.764 227.94 387.167 232.312 386.004 238.431Z" fill="black"/>
<path d="M455.368 234.546V259.903C456.145 260.681 457.115 261.168 458.573 261.168C460.419 261.168 461.876 260.197 462.751 258.544H463.529C463.14 263.791 459.739 269.231 453.231 269.231C448.372 269.231 445.265 265.735 444.197 262.138C441.475 266.317 437.009 269.231 431.569 269.231C425.159 269.231 420.399 265.052 420.399 259.224C420.399 251.451 427.198 246.789 443.91 242.319V236.683C443.91 230.952 441.384 228.427 436.235 228.427C432.834 228.427 429.92 229.691 428.172 231.341C432.351 231.341 433.808 234.452 433.808 236.781C433.808 239.794 431.671 242.901 427.688 242.901C424.192 242.901 421.278 240.473 421.278 236.294C421.278 228.718 431.286 223.18 441.29 223.18C450.229 223.18 455.375 227.453 455.375 234.546H455.368ZM431.373 256.113C431.373 259.998 434.095 262.331 437.783 262.331C440.018 262.331 442.446 261.749 443.903 259.998V246.008C434.578 248.824 431.37 251.447 431.37 256.11L431.373 256.113Z" fill="black"/>
<path d="M470.523 234.936L465.57 230.564V229.594L482.184 222.795V232.704C484.611 227.751 489.081 223.184 494.426 223.184C499.284 223.184 502.199 226.487 502.199 230.858C502.199 235.23 499.088 237.854 495.4 237.854C491.319 237.854 489.28 234.939 489.28 232.025C489.28 231.149 489.473 230.47 489.767 229.79L482.191 235.132V262.139L489.378 267.288V268.258H465.577V267.288L470.53 262.335V234.939L470.523 234.936Z" fill="black"/>
<path d="M526.451 223.18C536.749 223.18 548.308 232.7 548.308 246.204C548.308 259.707 536.749 269.228 526.451 269.228C516.153 269.228 504.593 259.707 504.593 246.204C504.593 232.7 516.153 223.18 526.451 223.18ZM526.451 227.162C520.524 229.008 516.541 236.487 516.541 246.204C516.541 255.92 520.524 263.399 526.451 265.245C532.378 263.399 536.36 255.92 536.36 246.204C536.36 236.487 532.378 229.008 526.451 227.162Z" fill="black"/>
<path d="M589.407 234.546V259.903C590.184 260.681 591.155 261.168 592.612 261.168C594.458 261.168 595.915 260.197 596.791 258.544H597.568C597.18 263.791 593.778 269.231 587.27 269.231C582.412 269.231 579.305 265.735 578.236 262.138C575.515 266.317 571.049 269.231 565.609 269.231C559.199 269.231 554.438 265.052 554.438 259.224C554.438 251.451 561.237 246.789 577.949 242.319V236.683C577.949 230.952 575.424 228.427 570.274 228.427C566.873 228.427 563.959 229.691 562.211 231.341C566.39 231.341 567.847 234.452 567.847 236.781C567.847 239.794 565.71 242.901 561.728 242.901C558.232 242.901 555.317 240.473 555.317 236.294C555.317 228.718 565.325 223.18 575.329 223.18C584.268 223.18 589.414 227.453 589.414 234.546H589.407ZM565.409 256.113C565.409 259.998 568.131 262.331 571.819 262.331C574.054 262.331 576.481 261.749 577.939 259.998V246.008C568.614 248.824 565.406 251.447 565.406 256.11L565.409 256.113Z" fill="black"/>
<path d="M612.721 207.052V206.082H639.727V207.052L632.54 213.077L649.346 263.01L666.055 213.077L658.867 207.052V206.082H679.169V207.052L671.981 213.077L653.136 268.257H638.953L619.912 213.077L612.724 207.052H612.721Z" fill="black"/>
<path d="M711.543 234.546V259.903C712.321 260.681 713.291 261.168 714.748 261.168C716.594 261.168 718.052 260.197 718.927 258.544H719.705C719.316 263.791 715.915 269.231 709.407 269.231C704.548 269.231 701.441 265.735 700.373 262.138C697.651 266.317 693.185 269.231 687.745 269.231C681.335 269.231 676.575 265.052 676.575 259.224C676.575 251.451 683.374 246.789 700.086 242.319V236.683C700.086 230.952 697.56 228.427 692.411 228.427C689.01 228.427 686.095 229.691 684.347 231.341C688.526 231.341 689.983 234.452 689.983 236.781C689.983 239.794 687.847 242.901 683.864 242.901C680.368 242.901 677.454 240.473 677.454 236.294C677.454 228.718 687.461 223.18 697.465 223.18C706.405 223.18 711.55 227.453 711.55 234.546H711.543ZM687.549 256.113C687.549 259.998 690.271 262.331 693.959 262.331C696.194 262.331 698.621 261.749 700.079 259.998V246.008C690.754 248.824 687.545 251.447 687.545 256.11L687.549 256.113Z" fill="black"/>
<path d="M726.701 234.936L721.748 230.564V229.594L738.362 222.795V232.704C740.79 227.751 745.259 223.184 750.604 223.184C755.463 223.184 758.377 226.487 758.377 230.858C758.377 235.23 755.267 237.854 751.578 237.854C747.497 237.854 745.459 234.939 745.459 232.025C745.459 231.149 745.652 230.47 745.946 229.79L738.369 235.132V262.139L745.557 267.288V268.258H721.755V267.288L726.708 262.335V234.939L726.701 234.936Z" fill="black"/>
<path d="M783.336 268.257H761.671V267.287L766.624 262.334V234.938L761.671 230.567V229.596L778.285 222.797V262.337L783.336 267.29V268.26V268.257ZM772.166 216.671C768.183 216.671 765.17 213.658 765.17 209.676C765.17 205.693 768.183 202.681 772.166 202.681C776.148 202.681 779.161 205.791 779.161 209.676C779.161 213.56 776.05 216.671 772.166 216.671Z" fill="black"/>
<path d="M810.151 223.18C820.45 223.18 832.009 232.7 832.009 246.204C832.009 259.707 820.45 269.228 810.151 269.228C799.853 269.228 788.294 259.707 788.294 246.204C788.294 232.7 799.853 223.18 810.151 223.18ZM810.151 227.162C804.225 229.008 800.242 236.487 800.242 246.204C800.242 255.92 804.225 263.399 810.151 265.245C816.078 263.399 820.061 255.92 820.061 246.204C820.061 236.487 816.078 229.008 810.151 227.162Z" fill="black"/>
<path d="M859.02 268.256H837.355V267.286L842.308 262.333V234.938L837.355 230.566V229.596L853.969 222.797V231.638C856.301 227.946 861.643 223.186 868.053 223.186C874.464 223.186 878.45 226.78 879.907 231.736C882.334 227.946 887.872 223.186 894.577 223.186C903.418 223.186 907.11 229.501 907.11 236.885V262.337L912.161 267.29V268.26H890.496V267.29L895.449 262.337V239.8C895.449 234.262 893.701 231.057 888.065 231.057C885.441 231.057 882.429 232.125 880.292 233.68C880.485 234.748 880.583 235.817 880.583 236.885V262.337L885.634 267.29V268.26H863.969V267.29L868.922 262.337V239.8C868.922 234.262 867.076 231.057 861.44 231.057C858.526 231.057 855.902 232.223 853.958 233.873V262.337L859.009 267.29V268.26L859.02 268.256Z" fill="black"/>
<path d="M936.736 269.228C925.66 269.228 916.529 260.485 916.529 247.468C916.529 234.452 926.242 223.18 937.608 223.18C948.975 223.18 954.513 232.213 954.513 242.708H925.758C926.049 253.976 933.142 259.612 941.497 259.612C947.035 259.612 951.599 257.185 954.03 252.229H955C953.641 263.206 946.45 269.231 936.736 269.231V269.228ZM926.053 238.431H943.441C943.441 232.312 940.719 227.94 935.766 227.94C930.813 227.94 927.216 232.312 926.053 238.431Z" fill="black"/>
<path d="M24.9737 4.64258C40.7062 13.8855 61.6985 28.0443 83.3039 48.8381C87.2198 45.5867 91.1737 42.4999 95.1393 39.5784C79.3247 27.4923 56.6662 14.282 24.9737 4.64258Z" fill="#800080"/>
<path d="M103.509 69.7119C112.643 79.9961 122.517 92.7646 131.536 109.009C140.225 124.657 174.601 186.581 149.938 222.825C147.774 226.006 137.892 239.662 120.507 243.249C118.965 243.566 115.599 244.26 111.348 244.366C104.431 244.538 95.1686 243.154 87.6004 236.071C80.0014 228.959 75.2509 216.295 77.0207 205.909C79.547 191.083 88.4932 184.582 98.7379 183.536C98.9331 183.517 99.3462 183.48 99.9217 183.466C102.596 183.399 108.729 183.803 112.341 188.587C115.085 192.222 114.924 196.475 114.786 198.041C113.963 197.331 110.348 194.38 105.131 194.51C104.965 194.514 104.8 194.518 104.631 194.53C99.7682 194.832 95.5237 197.734 93.5394 201.325C89.434 208.755 93.7133 220.492 102.007 225.118C105.278 226.941 109.362 227.17 112.386 227.095C117.67 226.963 121.024 225.58 122.565 224.606C138.751 214.374 143.418 196.797 139.263 181.221C133.978 161.409 113.529 152.581 98.5357 152.304C97.9595 152.292 97.3763 152.295 96.8008 152.309C75.4556 152.841 55.1469 170.351 49.5396 195.902C44.7875 217.56 52.1112 239.304 66.2564 253.268C83.5733 270.364 105.39 270.946 112.026 270.807C112.105 270.805 112.184 270.803 112.263 270.801C141.86 270.064 159.823 248.435 164.724 242.558C176.502 228.433 180.414 213.699 181.813 206.566C182.628 202.41 185.651 185.225 174.98 153.294C164.956 123.295 150.508 103.068 136.754 84.2994C132.352 78.2932 125.476 68.7733 117.52 60.0292C116.793 59.2306 116.011 58.392 115.192 57.5279C111.178 61.5044 107.278 65.5684 103.505 69.7083L103.509 69.7119Z" fill="black"/>
<path d="M115.269 50.1302C135.011 31.1667 155.27 16.1797 173.513 4.57369C156.68 10.4013 130.747 21.0359 103.842 39.8015C107.846 43.1154 111.658 46.5619 115.273 50.1301L115.269 50.1302Z" fill="#800080"/>
<path d="M83.0552 55.9314C69.478 67.6357 56.1799 81.6326 44.2218 98.3586C29.6559 118.721 6.22917 151.841 5.06906 198.185C4.68377 213.539 4.78501 249.512 31.3022 278.023C34.6937 281.668 61.6116 309.643 100.958 308.662C104.971 308.562 109.124 308.162 113.388 307.401C146.466 301.503 173.667 276.343 183.663 242.805C178.003 251.426 165.163 268.238 142.375 278.7C135.469 281.872 122.505 287.825 106.614 288.221C100.464 288.374 93.8721 287.695 87.0252 285.698C69.5974 280.615 59.0203 269.531 54.2907 264.444C38.5551 247.523 34.4805 228.543 33.0118 221.252C31.3842 213.178 24.7149 174.202 58.9203 121.692C70.1797 102.149 82.9865 84.8978 96.4507 69.7112C91.7429 64.5933 87.3699 60.2274 83.6261 56.4893C83.4371 56.3021 83.2443 56.1187 83.059 55.9313L83.0552 55.9314Z" fill="black"/>
<path d="M99.967 65.7998C103.781 61.6326 107.637 57.6337 111.523 53.7883C108.139 50.4478 104.126 46.7841 99.4204 42.9534C95.31 45.95 91.1854 49.1351 87.0773 52.5306C87.1584 52.6114 87.2432 52.6921 87.3243 52.7766C91.153 56.5954 95.4339 60.8959 99.9632 65.7999L99.967 65.7998Z" fill="#800080"/>
</svg>
